<svg xmlns="http://www.w3.org/2000/svg" viewBox="0 0 11 11">
  <path fill="currentColor" d="M5.118 2.054L4.114 3.801c.308-.06.645-.091 1.01-.091.36 0 .69.028.993.082zm.006 3.05c-.713 0-1.28.226-1.703.678-.42.452-.629 1.123-.629 2.012 0 .96.214 1.68.64 2.16.426.479.985.718 1.676.718.341 0 .683-.067 1.025-.199.345-.136.641-.3.888-.49V8.956H5.152v-1.36h3.15L7.72 6.58l-.175-.304-.601.113a1.694 1.694 0 00-.645-.938c-.312-.231-.704-.347-1.174-.347zm3.544 3.13v2.58a3.035 3.035 0 01-.362.293h2.013zm-7.461.626l-1.291 2.247h2.486a3.43 3.43 0 01-.817-1.092 4.774 4.774 0 01-.378-1.155z"/>
</svg>