<svg xmlns="http://www.w3.org/2000/svg">
<symbol id="logo-round" viewBox="0 0 12.171 12.171"><path fill="currentColor" d="M6.118.054L5.114 1.801c.308-.06.645-.091 1.01-.091.36 0 .69.028.993.082zm.006 3.05c-.713 0-1.28.226-1.703.678-.42.452-.629 1.123-.629 2.012 0 .96.214 1.68.64 2.16.426.479.985.718 1.676.718.341 0 .683-.067 1.025-.199.345-.136.641-.3.888-.49V6.956H6.152V5.596h3.15L8.72 4.58l-.175-.304-.601.113a1.694 1.694 0 00-.645-.938c-.312-.231-.704-.347-1.174-.347zm3.544 3.13v2.58a3.035 3.035 0 01-.362.293h2.013zm-7.461.626L.916 9.107h2.486a3.43 3.43 0 01-.817-1.092 4.774 4.774 0 01-.378-1.155z"/>
</symbol>
<symbol id="logo" viewBox="0 0 10.5 9.1"><path fill="currentColor" d="M5.218.054L4.214 1.801c.308-.06.645-.091 1.01-.091.36 0 .69.028.993.082zm.006 3.05c-.713 0-1.28.226-1.703.678-.42.452-.629 1.123-.629 2.012 0 .96.214 1.68.64 2.16.426.479.985.718 1.676.718.341 0 .683-.067 1.025-.199.345-.136.641-.3.888-.49V6.956H5.252v-1.36h3.15L7.82 4.58l-.175-.304-.601.113a1.694 1.694 0 00-.645-.938c-.312-.231-.704-.347-1.174-.347zm3.544 3.13v2.58a3.035 3.035 0 01-.362.293h2.013zm-7.461.626L.016 9.107h2.486a3.43 3.43 0 01-.817-1.092 4.774 4.774 0 01-.378-1.155z"/>
</symbol></svg>